Coordinates
version=1
nRows=8
nColumns=46
inDegrees=yes

Units are S.I. units (second, meters, Newtons, ...)
Angles are in degrees.

endheader
time	pelvis_tilt	pelvis_list	pelvis_rotation	pelvis_tx	pelvis_ty	pelvis_tz	bb_angle	bb_tx	bb_ty	bb_tz	hip_flexion_r	hip_adduction_r	hip_rotation_r	knee_angle_r	knee_angle_r_beta	ankle_angle_r	subtalar_angle_r	mtp_angle_r	crank_angle_r	hip_flexion_l	hip_adduction_l	hip_rotation_l	knee_angle_l	knee_angle_l_beta	ankle_angle_l	subtalar_angle_l	mtp_angle_l	crank_angle_l	lumbar_extension	lumbar_bending	lumbar_rotation	arm_flex_r	arm_add_r	arm_rot_r	elbow_flex_r	pro_sup_r	wrist_flex_r	wrist_dev_r	arm_flex_l	arm_add_l	arm_rot_l	elbow_flex_l	pro_sup_l	wrist_flex_l	wrist_dev_l
      5.00500000	    -12.62856048	     -2.49735526	     -3.47213258	      0.12377415	      1.13621364	     -0.24380938	      0.00000000	      0.50000000	      0.00000000	      0.25000000	     73.48323216	      4.12012054	      9.85121530	    106.88783331	      1.86554462	      1.83083197	     -7.36003679	      0.00000000	      0.00000000	     36.69030473	     -7.62008818	     -2.74855898	     20.09339161	      0.35069584	    -12.00573832	      4.08689557	      0.00000000	      0.00000000	    -62.49890024	      1.77913007	      2.93251832	     89.63957092	    -16.26397226	     42.69825258	     54.39177202	     43.38269197	      0.00000000	      0.00000000	     88.63980626	    -18.01773792	     42.54292581	     50.80778644	     34.43577731	      0.00000000	      0.00000000
      5.01000000	    -12.80680990	     -2.73697675	     -4.01093113	      0.12343944	      1.13624394	     -0.24446243	      0.00000000	      0.50000000	      0.00000000	      0.25000000	     74.83212188	      4.40044766	      9.68480101	    107.55398677	      1.87717119	      2.73318666	     -6.77708410	      0.00000000	      0.00000000	     35.47143188	     -8.23704745	     -4.17036767	     18.52400054	      0.32330480	    -13.10612063	      5.70699780	      0.00000000	      0.00000000	    -62.48742988	      1.86433010	      4.40455114	     89.65522363	    -17.63989214	     43.10676056	     56.09404900	     42.23377514	      0.00000000	      0.00000000	     88.67829135	    -16.51984610	     41.74448216	     49.43745353	     34.92143830	      0.00000000	      0.00000000
      5.01500000	    -13.18032046	     -3.03960158	     -4.51808319	      0.12294697	      1.13610308	     -0.24453029	      0.00000000	      0.50000000	      0.00000000	      0.25000000	     76.36579934	      4.73343118	      9.37280819	    108.03205380	      1.88551504	      3.51495514	     -6.45683937	      0.00000000	      0.00000000	     34.50016823	     -8.87828999	     -5.31206059	     17.03241076	      0.29727165	    -14.26116896	      6.94840851	      0.00000000	      0.00000000	    -62.28994338	      2.11858829	      5.25324077	     89.68203448	    -17.40770109	     42.91090334	     56.28129172	     42.15163486	      0.00000000	      0.00000000	     88.61299365	    -16.67462307	     41.70703044	     49.29831338	     34.93928692	      0.00000000	      0.00000000
      5.02000000	    -13.02780156	     -2.91427491	     -5.45906727	      0.12290752	      1.13683389	     -0.24396059	      0.00000000	      0.50000000	      0.00000000	      0.25000000	     77.28824232	      5.37827494	      9.72101073	    108.44114705	      1.89265506	      4.42908980	     -5.44088807	      0.00000000	      0.00000000	     32.98744773	     -9.47310526	     -8.00452431	     15.98175701	      0.27893428	    -14.80807000	      9.34863048	      0.00000000	      0.00000000	    -62.62786165	      1.57704199	      6.04283637	     89.68828612	    -17.19639298	     42.15494909	     56.42170833	     41.76253076	      0.00000000	      0.00000000	     88.65384923	    -16.38888360	     41.58384584	     49.06051539	     35.04362217	      0.00000000	      0.00000000
      5.02500000	    -13.24370708	     -3.06900073	     -6.09287618	      0.12260415	      1.13697138	     -0.24373559	      0.00000000	      0.50000000	      0.00000000	      0.25000000	     78.54360103	      5.78591684	      9.55347505	    108.64702286	      1.89624827	      5.17065635	     -4.87542860	      0.00000000	      0.00000000	     32.05027329	    -10.07379569	     -9.83427049	     15.12550388	      0.26398984	    -15.36286895	     11.14792680	      0.00000000	      0.00000000	    -62.61871023	      1.53074473	      6.83574940	     89.70190274	    -17.02858808	     41.81433288	     56.84828315	     41.40976611	      0.00000000	      0.00000000	     88.64347373	    -16.25563949	     41.27774145	     48.80013869	     35.15130447	      0.00000000	      0.00000000
      5.03000000	    -13.71785352	     -3.29690434	     -6.49719365	      0.12211979	      1.13680425	     -0.24374034	      0.00000000	      0.50000000	      0.00000000	      0.25000000	     79.98606602	      5.93189579	      9.13050772	    108.64440371	      1.89620256	      5.83422803	     -4.66561337	      0.00000000	      0.00000000	     31.51345457	    -10.51358408	    -10.87239881	     14.40593347	      0.25143097	    -15.94189857	     11.89912234	      0.00000000	      0.00000000	    -62.36116810	      1.79768670	      7.51346757	     89.71860013	    -16.85849221	     41.76705326	     57.22102719	     41.36516353	      0.00000000	      0.00000000	     88.59070276	    -16.35805071	     41.14435806	     48.68012727	     35.16408545	      0.00000000	      0.00000000
      5.03500000	    -14.18974293	     -3.37951236	     -7.12833618	      0.12186295	      1.13672394	     -0.24344603	      0.00000000	      0.50000000	      0.00000000	      0.25000000	     81.32985759	      6.26490990	      8.92833482	    108.52673563	      1.89414886	      6.70687781	     -3.96399439	      0.00000000	      0.00000000	     31.08849087	    -11.00802363	    -12.60643410	     14.14005878	      0.24679058	    -16.08308485	     13.06984928	      0.00000000	      0.00000000	    -62.14207811	      1.69830742	      8.21835491	     89.72463763	    -16.90107236	     41.51527605	     57.73401799	     41.21756679	      0.00000000	      0.00000000	     88.55381466	    -16.32011605	     40.94215938	     48.65854009	     35.23636274	      0.00000000	      0.00000000
      5.04000000	    -14.49679612	     -3.49679954	     -7.45836622	      0.12111567	      1.13665036	     -0.24309268	      0.00000000	      0.50000000	      0.00000000	      0.25000000	     82.40161651	      6.36370338	      8.62762929	    108.33768222	      1.89084926	      7.82385277	     -3.40279580	      0.00000000	      0.00000000	     30.82489560	    -11.43087223	    -13.98140886	     14.41470721	      0.25158410	    -15.80515939	     14.10607993	      0.00000000	      0.00000000	    -62.09705082	      1.80329098	      8.76628915	     89.73092453	    -16.98423778	     41.30986693	     58.44369898	     41.02804754	      0.00000000	      0.00000000	     88.57591243	    -16.30961632	     40.63820358	     48.66365300	     35.33902474	      0.00000000	      0.00000000
